<svg width="23" height="23" viewBox="0 0 23 23" fill="none" xmlns="http://www.w3.org/2000/svg">
<path d="M22.6379 11.7567C22.6379 5.58781 17.6367 0.586548 11.4678 0.586547C5.29739 0.586547 0.297622 5.58781 0.297622 11.7567C0.297622 17.9271 5.29739 22.9269 11.4678 22.9269C17.6367 22.9268 22.6379 17.9271 22.6379 11.7567ZM9.08482 17.1154C8.79437 16.8249 8.79437 16.3528 9.08482 16.0624L13.3905 11.7567L9.08482 7.451C8.79437 7.16055 8.79437 6.68843 9.08482 6.39803C9.37376 6.10759 9.84738 6.10759 10.1378 6.39803L14.9678 11.228C15.1137 11.3739 15.1852 11.5646 15.1852 11.7567C15.1852 11.9488 15.1137 12.1395 14.9678 12.2854L10.1378 17.1154C9.84738 17.4058 9.37676 17.4058 9.08482 17.1154Z" fill="#8DC3E2"/>
</svg>
